:SAMPLES-PER-SECOND 30
:FULLY-SPECIFIED
:DEGREES
997
root  -61.2945 35.1384 -1.01925 17.3628 -87.8973 17.6357
RightUpLeg  -73.9326 -7.86548 -0.00275641
RightLeg  49.7257 1.12849 1.07078
RightFoot  -7.94788 -0.0941492 1.36751
RightToes  2.32829e-010 0 -3.6325e-017
Spine  71.6142 -4.42954 7.91604
Spine1  -5.54677 1.91429 -6.24586
HEad  -39.6512 -9.17339 4.44218
LeftShoulder1  -0.50184 -15.8 12.6334
LeftArm  -81.0286 -60.5604 12.0913
LeftForeArm  -2.44535 -16.8172 2.97707
LeftHand  -0.0676571 3.5971 3.30662
RightShoulder  -0.451624 8.89022 -13.8753
RightArm  -54.7922 52.1642 -18.6504
RightForeArm  -38.3839 0.884248 -3.39195
RightHand  -0.39647 11.6483 -3.12056
LeftUpLeg  -75.751 8.05167 -6.54984
LeftLeg  49.8829 -4.37103 -5.09983
LeftFoot  -5.5237 -0.275151 6.07058
LeftToes  -3.54706e-010 1.16038e-010 5.28031e-012
998
root  -61.4135 35.0987 -1.01049 19.5529 -87.6707 16.0615
RightUpLeg  -74.4519 -7.84375 0.0128046
RightLeg  49.9813 0.870806 0.752747
RightFoot  -8.63626 -0.101008 1.78302
RightToes  2.32829e-010 0 -3.6325e-017
Spine  71.9703 -4.17189 8.12606
Spine1  -6.52393 2.22906 -5.70399
HEad  -39.8925 -10.2935 3.36081
LeftShoulder1  -0.508202 -15.9035 12.6552
LeftArm  -84.4942 -60.5537 10.455
LeftForeArm  1.26119 -18.0911 1.89762
LeftHand  -0.0642398 3.54448 2.96603
RightShoulder  -0.394928 8.93008 -13.3388
RightArm  -54.3044 51.5024 -18.9982
RightForeArm  -39.5118 0.969831 -3.23374
RightHand  -0.206453 11.7175 -1.81184
LeftUpLeg  -76.1873 7.70463 -6.45461
LeftLeg  49.9096 -4.22318 -4.91818
LeftFoot  -6.03334 -0.260529 6.39483
LeftToes  -3.54706e-010 1.16038e-010 5.28031e-012
999
root  -61.5054 35.0642 -0.996255 15.8536 -87.6146 20.2355
RightUpLeg  -74.8534 -7.74117 -0.369695
RightLeg  50.1942 0.703835 0.543738
RightFoot  -8.96855 -0.0977016 1.77924
RightToes  2.32829e-010 0 -3.6325e-017
Spine  72.2207 -4.42979 8.16508
Spine1  -7.11271 2.12849 -6.24027
HEad  -39.3603 -10.4772 3.58448
LeftShoulder1  -0.542829 -16.4346 12.771
LeftArm  -82.5337 -60.06 11.2714
LeftForeArm  -0.597634 -17.4984 2.42019
LeftHand  -0.0583669 3.84414 2.91705
RightShoulder  -0.355438 9.15367 -12.9149
RightArm  -54.0832 51.2249 -18.6273
RightForeArm  -40.6292 1.01717 -3.27181
RightHand  -0.393244 12.5751 -2.97436
LeftUpLeg  -76.5567 7.47484 -6.59414
LeftLeg  50.0344 -4.13704 -4.83138
LeftFoot  -6.4347 -0.229307 6.25099
LeftToes  -3.54706e-010 1.16038e-010 5.28031e-012
1000
root  -61.5636 35.0125 -0.994009 16.3992 -87.4528 20.1545
RightUpLeg  -75.2831 -7.37798 -0.849741
RightLeg  50.4796 0.304317 0.0304372
RightFoot  -9.31821 -0.0991284 2.0407
RightToes  2.32829e-010 0 -3.6325e-017
Spine  72.2788 -4.80763 8.31846
Spine1  -7.52628 1.91752 -6.91731
HEad  -39.761 -10.0858 4.35643
LeftShoulder1  -0.629005 -17.0469 13.1597
LeftArm  -79.3923 -59.2958 12.3906
LeftForeArm  -5.27009 -16.6148 3.05146
LeftHand  -0.0780039 3.34459 3.45779
RightShoulder  -0.295764 9.33183 -12.3343
RightArm  -54.6307 50.8233 -18.3282
RightForeArm  -42.322 1.4729 -3.43166
RightHand  -0.245693 12.0954 -2.04921
LeftUpLeg  -77.1117 7.26199 -6.59349
LeftLeg  50.3302 -4.09159 -4.82692
LeftFoot  -6.63122 -0.211747 6.11589
LeftToes  -3.54706e-010 1.16038e-010 5.28031e-012
1001
root  -61.5964 34.9449 -0.987852 14.5058 -87.3206 22.3229
RightUpLeg  -75.7018 -7.26532 -1.20336
RightLeg  50.8957 0.0743332 -0.272155
RightFoot  -9.77137 -0.10129 2.55851
RightToes  2.32829e-010 0 -3.6325e-017
Spine  72.474 -4.9153 8.31398
Spine1  -7.91568 1.8584 -7.00647
HEad  -40.4652 -9.89588 4.45982
LeftShoulder1  -0.647498 -17.5056 13.1819
LeftArm  -79.9317 -58.9141 12.6696
LeftForeArm  -6.36349 -16.5734 3.18431
LeftHand  -0.0371092 4.50034 1.9907
RightShoulder  -0.29586 9.52182 -12.2959
RightArm  -54.9376 50.4429 -17.7508
RightForeArm  -42.294 1.98396 -3.64757
RightHand  -0.100926 11.4394 -1.12514
LeftUpLeg  -77.532 7.09827 -6.72325
LeftLeg  50.6629 -4.06709 -4.85533
LeftFoot  -6.79064 -0.20405 6.15939
LeftToes  -3.54706e-010 1.16038e-010 5.28031e-012
1002
root  -61.6006 34.8357 -0.964294 19.1189 -87.1573 18.1509
RightUpLeg  -76.476 -7.22759 -1.08465
RightLeg  51.4747 -0.0657891 -0.464465
RightFoot  -9.999 -0.100165 2.77406
RightToes  2.32829e-010 0 -3.6325e-017
Spine  72.4746 -5.19935 8.59402
Spine1  -8.64008 1.72198 -7.23118
HEad  -40.3494 -9.94502 4.18737
LeftShoulder1  -0.622865 -17.5158 13.0455
LeftArm  -80.9351 -59.0143 12.0222
LeftForeArm  -6.04011 -16.9194 2.9211
LeftHand  -0.0287162 5.30194 1.85761
RightShoulder  -0.299284 9.32619 -12.3692
RightArm  -55.0661 50.9441 -16.9515
RightForeArm  -43.542 2.07755 -3.65139
RightHand  -0.243238 11.308 -2.11053
LeftUpLeg  -78.357 6.92731 -6.60373
LeftLeg  51.2472 -3.97918 -4.8462
LeftFoot  -7.00642 -0.191963 6.18268
LeftToes  -3.54706e-010 1.16038e-010 5.28031e-012
1003
root  -61.5719 34.7704 -0.917582 10.2606 -87.3416 26.5818
RightUpLeg  -76.5202 -7.47981 -1.35009
RightLeg  52.1412 0.105737 -0.237711
RightFoot  -9.66639 -0.0957654 2.05606
RightToes  2.32829e-010 0 -3.6325e-017
Spine  73.3013 -5.35337 8.31259
Spine1  -9.26651 1.4137 -7.28042
HEad  -40.8865 -9.54925 3.90809
LeftShoulder1  -0.555716 -17.4511 12.6863
LeftArm  -77.4793 -59.2166 12.9225
LeftForeArm  -11.5531 -15.822 3.61338
LeftHand  -0.0355926 4.8082 2.48913
RightShoulder  -0.30945 9.18899 -12.4884
RightArm  -56.0267 51.5108 -16.5198
RightForeArm  -43.917 2.03759 -3.89216
RightHand  -0.253511 11.1653 -2.18522
LeftUpLeg  -78.158 6.88378 -6.95372
LeftLeg  51.7116 -3.83498 -4.73819
LeftFoot  -7.0809 -0.189447 6.23218
LeftToes  -3.54706e-010 1.16038e-010 5.28031e-012
1004
root  -61.5161 34.6921 -0.88321 4.17426 -87.5233 32.2894
RightUpLeg  -76.6378 -7.62196 -1.49179
RightLeg  52.7485 0.275409 -0.00181482
RightFoot  -9.42882 -0.0921971 1.70382
RightToes  2.32829e-010 0 -3.6325e-017
Spine  74.031 -5.31475 8.17612
Spine1  -9.87671 1.48186 -7.54348
HEad  -41.5512 -9.05046 4.42184
LeftShoulder1  -0.772472 -17.9118 13.7943
LeftArm  -77.4405 -59.2753 11.8655
LeftForeArm  -12.2031 -15.2957 4.46312
LeftHand  -0.0340104 5.02752 1.98764
RightShoulder  -0.177232 9.35801 -11.2569
RightArm  -57.0254 51.9114 -18.2708
RightForeArm  -45.7781 1.06384 -3.81479
RightHand  0.00619866 11.4552 -0.383915
LeftUpLeg  -78.2021 6.91742 -7.1053
LeftLeg  52.3622 -3.80175 -4.8096
LeftFoot  -7.17329 -0.17046 5.86857
LeftToes  -3.54706e-010 1.16038e-010 5.28031e-012
1005
root  -61.4353 34.5784 -0.830575 10.6732 -87.7147 25.9142
RightUpLeg  -77.2845 -7.56422 -1.14011
RightLeg  53.219 0.368773 0.133297
RightFoot  -9.02499 -0.0921992 1.50882
RightToes  2.32829e-010 0 -3.6325e-017
Spine  74.5893 -5.33389 8.48083
Spine1  -11.7498 1.52668 -7.37575
HEad  -41.0767 -9.23322 3.57354
LeftShoulder1  -0.531733 -18.484 12.4252
LeftArm  -78.6587 -59.8921 10.7452
LeftForeArm  -10.1557 -15.2541 4.91905
LeftHand  -0.0278632 5.88343 0.520216
RightShoulder  -0.341132 9.79129 -12.6432
RightArm  -56.2685 52.1069 -15.6149
RightForeArm  -46.7487 0.501265 -4.08755
RightHand  -0.0854149 12.4584 -0.992648
LeftUpLeg  -78.9792 6.9079 -6.81529
LeftLeg  53.1093 -3.64987 -4.73424
LeftFoot  -7.06556 -0.17822 5.91092
LeftToes  -3.54706e-010 1.16038e-010 5.28031e-012
1006
root  -61.3082 34.5588 -0.759664 6.51874 -87.9968 29.5706
RightUpLeg  -77.2111 -7.59858 -1.26341
RightLeg  53.3517 0.489794 0.309952
RightFoot  -8.42394 -0.105923 1.93864
RightToes  2.32829e-010 0 -3.6325e-017
Spine  75.0274 -5.51966 8.52137
Spine1  -11.9437 1.57311 -7.90449
HEad  -40.7497 -9.55282 2.92062
LeftShoulder1  -0.771655 -18.3064 13.6702
LeftArm  -76.7131 -60.288 9.68339
LeftForeArm  -13.8389 -14.2597 5.86768
LeftHand  -0.0300366 5.50863 0.616684
RightShoulder  -0.36109 9.4039 -12.9071
RightArm  -57.3072 52.6949 -15.2755
RightForeArm  -47.5036 0.0395319 -4.45322
RightHand  -0.0926479 12.5656 -1.03339
LeftUpLeg  -78.7319 7.01995 -7.01152
LeftLeg  53.1966 -3.51902 -4.56276
LeftFoot  -6.8606 -0.199382 6.14432
LeftToes  -3.54706e-010 1.16038e-010 5.28031e-012
1007
root  -61.1585 34.5653 -0.663198 3.64209 -88.3214 32.3429
RightUpLeg  -77.3269 -7.50137 -1.37277
RightLeg  53.0757 0.599951 0.463933
RightFoot  -7.49416 -0.107009 1.66586
RightToes  2.32829e-010 0 -3.6325e-017
Spine  74.3272 -5.57172 8.91592
Spine1  -10.9801 1.906 -8.37985
HEad  -41.4441 -9.62298 2.90203
LeftShoulder1  -1.23909 -19.846 15.7271
LeftArm  -75.5196 -58.641 8.4233
LeftForeArm  -16.5492 -14.0312 6.17538
LeftHand  -0.0308704 4.92086 1.52237
RightShoulder  -0.325127 9.99527 -12.4492
RightArm  -57.311 51.7719 -17.041
RightForeArm  -48.6558 -0.174594 -4.30599
RightHand  -0.0649531 12.1293 -0.853244
LeftUpLeg  -78.8617 7.13949 -7.24611
LeftLeg  53.0958 -3.41977 -4.40399
LeftFoot  -6.2854 -0.255096 6.62546
LeftToes  -3.54706e-010 1.16038e-010 5.28031e-012
1008
root  -61.0038 34.6712 -0.538663 -7.09222 -88.7059 42.8259
RightUpLeg  -76.8331 -7.24894 -1.93001
RightLeg  52.0638 0.747725 0.647205
RightFoot  -6.75324 -0.123397 1.93129
RightToes  2.32829e-010 0 -3.6325e-017
Spine  74.1386 -5.86331 8.87711
Spine1  -11.0345 1.5601 -8.74845
HEad  -41.5134 -8.87912 2.94705
LeftShoulder1  -1.15453 -20.078 15.2456
LeftArm  -70.0666 -58.1714 8.73102
LeftForeArm  -21.0679 -12.5534 6.59537
LeftHand  -0.0281967 5.40028 1.22129
RightShoulder  -0.429228 10.0246 -13.3304
RightArm  -57.1626 51.9398 -15.0491
RightForeArm  -48.4659 0.629895 -4.49525
RightHand  -0.196299 12.5577 -1.69312
LeftUpLeg  -78.5277 7.39074 -7.77742
LeftLeg  52.4757 -3.38634 -4.2539
LeftFoot  -5.48605 -0.324256 6.98353
LeftToes  -3.54706e-010 1.16038e-010 5.28031e-012
